<?xml version="1.0" encoding="utf-8"?>
<svg viewBox="0 0 100 125" xmlns="http://www.w3.org/2000/svg" xmlns:bx="https://boxy-svg.com">
  <circle style="fill: rgb(255, 230, 0); stroke-width: 2.5203px; stroke: rgb(0, 0, 0);" cx="38.925" cy="35.04" r="28.816" transform="matrix(1.56771, 0, 0, 1.606513, -11.639709, 5.031821)"/>
  <circle style="stroke: rgb(0, 0, 0); fill: rgb(255, 255, 255);" cx="42.68" cy="53.343" r="19.944" transform="matrix(1.428928, 0, 0, 1.397258, -11.215011, -3.061677)"/>
  <path d="M 22.773 78.776 C 23.554 74.584 25.822 71.088 27.17 67.07 C 27.563 65.899 27.961 64.733 28.352 63.56 C 28.668 62.613 28.957 61.637 29.25 60.691 C 29.518 59.825 29.764 58.947 30.029 58.081 C 30.718 55.824 31.232 53.688 31.78 51.495 C 31.864 51.161 31.918 49.692 32.288 49.559 C 32.327 49.545 32.883 52.853 32.896 52.916 C 33.424 55.522 34.387 58.044 34.997 60.629 C 37.212 70.026 38.372 79.973 41.524 89.073 C 42.12 90.794 42.642 92.816 42.826 94.642 C 42.882 95.2 43.016 96.951 43.459 97.369 C 43.829 97.718 43.697 96.379 43.79 95.879 C 44.001 94.744 44.168 93.571 44.295 92.416 C 44.635 89.322 44.968 86.28 45.46 83.204 C 46.418 77.207 47.612 71.189 48.343 65.162 C 48.851 60.972 48.91 56.585 49.798 52.444 C 50.17 50.707 50.423 48.467 51.224 46.866 C 51.392 46.53 51.435 43.897 51.627 43.886 C 51.958 43.866 51.706 44.546 51.794 44.866 C 51.972 45.507 52.226 46.086 52.502 46.687 C 53.338 48.507 54.091 50.375 54.867 52.223 C 56.677 56.53 58.87 60.626 60.303 65.08 C 61.686 69.379 61.818 74.033 62.914 78.417 C 63.679 81.477 63.851 84.635 65.106 87.517 C 65.51 88.445 65.828 89.422 66.149 90.384 C 66.261 90.72 66.357 91.061 66.516 91.379 C 66.59 91.527 66.746 91.984 66.746 91.819 C 66.746 89.273 68.686 86.457 69.594 84.177 C 71.832 78.561 73.916 73.011 74.872 67.234 C 75.082 65.968 76.231 64.386 76.231 63.217" style="stroke: rgb(0, 0, 0); fill: none; stroke-width: 2px;"/>
  <path d="M 257.739 175.203 m -14.997 0 a 14.997 14.997 0 1 0 29.994 0 a 14.997 14.997 0 1 0 -29.994 0 Z M 257.739 175.203 m -8.998 0 a 8.998 8.998 0 0 1 17.996 0 a 8.998 8.998 0 0 1 -17.996 0 Z" style="fill: rgb(255, 0, 0);" transform="matrix(-0.688391, 0.725339, -0.725339, -0.688391, 333.856949, -30.108552)" bx:shape="ring 257.739 175.203 8.998 8.998 14.997 14.997 1@468314f2"/>
  <path d="M 257.739 175.203 m -14.997 0 a 14.997 14.997 0 1 0 29.994 0 a 14.997 14.997 0 1 0 -29.994 0 Z M 257.739 175.203 m -8.998 0 a 8.998 8.998 0 0 1 17.996 0 a 8.998 8.998 0 0 1 -17.996 0 Z" style="fill: rgb(255, 0, 0);" transform="matrix(-0.688391, 0.725339, -0.725339, -0.688391, 369.159806, -31.745429)" bx:shape="ring 257.739 175.203 8.998 8.998 14.997 14.997 1@468314f2"/>
  <path d="M 17.558034547040194 93.59137989816529 C 15.188140731041779 93.59137725830078 13.293417336114539 94.21189059635594 10.997687339782715 94.81979370117188 C 9.664544129756925 95.17280642385 8.360140470763694 95.56349631452582 7.036795139312744 95.95279693603516 C 6.360523627660743 96.15174192306021 5.676928693230867 96.30316892016606 4.999124050140381 96.496826171875 C 2.70275896616909 97.15292635592596 2.9190764988550093 96.55344236081443 3.537078380584717 98.78533935546875 C 3.815187926989401 99.78972442152713 3.7441426847012607 99.07976970559864 3.992117404937744 100.40231323242188 C 4.118039465254283 101.0739034880619 4.252780036643727 101.74390005665094 4.369884967803955 102.41708374023438 C 4.617892254495955 103.84276630677307 4.842086826806531 105.24393234423988 5.2566094398498535 106.64117431640625 C 5.587011676937302 107.75486958616949 6.223960368228701 109.04773472152914 6.9177565574646 109.98957061767578 C 7.01357447739225 110.11964448934313 7.872760772705078 110.89663979896169 7.872760772705078 111.05839538574219" style="fill: none; stroke-width: 4px; stroke: rgb(251, 255, 0);"/>
  <path d="M 23.882406662474523 100.78504234328693 C 23.24216482811062 103.87465505940953 20.79575032602956 106.10356985302457 18.99759864807129 108.58870697021484 C 18.166185954845623 109.73776161836571 17.962426357683146 110.90239108956536 17.3902645111084 112.04671478271484 C 17.31890858096639 112.18942664299887 18.10413674062813 113.66666463396679 18.14425277709961 113.90736389160156 C 18.487426345351917 115.96643129665131 18.89472770690918 117.90928376706823 18.89472770690918 120.00599670410156" style="fill: none; stroke-width: 3px; stroke: rgb(251, 255, 0);"/>
  <path d="M 32.49071407646086 106.42120114167895 C 32.49071502685547 108.78500669859729 33.35385026085586 111.26295898778248 34.19599914550781 113.4375228881836 C 34.21165087402205 113.4779381691704 35.19693719163727 115.93219607478498 35.14200210571289 115.9809341430664 C 33.60361911171583 117.34577801548022 29.48806381225586 120.51036920411146 29.48806381225586 122.92243957519531" style="fill: none; stroke-width: 3px; stroke: rgb(251, 255, 0);"/>
  <path d="M 47.574437447394004 109.21242628402558 C 47.57443618774414 111.18761444091793 47.57443618774414 113.16280364990237 47.57443618774414 115.13799285888672 C 47.57443618774414 115.28206742311016 47.424785945746244 116.33501789970524 47.57443618774414 116.48291015625 C 49.09192465400157 117.9825722387118 52.022072848813096 119.0429050276743 53.77705764770508 120.45513153076172 C 54.098668317121906 120.71392984702798 55.936767578125 121.9033139572964 55.936767578125 122.46259307861328" style="fill: none; stroke-width: 3px; stroke: rgb(251, 255, 0);"/>
  <path d="M 62.34042509193274 106.9997808414324 C 64.01547484789715 109.54496908059127 66.50363032114007 112.15930832497023 68.82366180419922 114.12283325195312 C 69.48824230629302 114.68529130106862 71.96412235159347 116.19968984007953 72.22386169433594 117.13117218017578 C 72.40631380646721 117.7854855335904 71.82836151123047 119.00230972651609 71.82836151123047 119.79141998291016" style="fill: none; stroke-width: 3px; stroke: rgb(251, 255, 0);"/>
  <path d="M 75.34673879143816 101.33377052415256 C 77.62016034427974 102.66742217863961 79.30054278933466 104.05815520697818 81.8063735961914 104.5915756225586 C 81.84862100297825 104.60056889904948 85.63444362090135 105.13584509696396 86.48838806152344 105.16572570800781 C 87.6839200180123 105.20755890427091 88.88091532389323 105.16572570800781 90.07717895507812 105.16572570800781 C 91.52692921956375 105.16572570800781 92.97667948404948 105.16572570800781 94.42642974853516 105.16572570800781 C 94.83377943955547 105.16572570800781 95.49916712044747 104.8392252047985 95.64733123779297 105.21867370605469 C 96.93084700639903 108.50575929372476 93.80792999267578 112.88615194308306 93.80792999267578 116.25526428222656" style="fill: none; stroke-width: 3px; stroke: rgb(251, 255, 0);"/>
  <path d="M 89.9530238374645 85.41640607656495 C 90.1433333580157 88.62715327444802 91.75553531838 91.1893296211192 93.77954864501953 93.62236785888672 C 94.41550017901008 94.38683634296281 95.44477721371005 95.20080018691624 96.34458923339844 95.75210571289062 C 96.44187686837947 95.81171284149133 97.94500732421875 96.2167372154008 97.94500732421875 96.38105773925781" style="fill: none; stroke-width: 3px; stroke: rgb(251, 255, 0);"/>
  <path d="M 87.61214056018228 33.48104318937551 C 87.61213684082031 29.657049781872054 89.20134076029059 27.125672432514662 91.10421752929688 23.93414878845215 C 91.55585059620431 23.176665363906352 92.86678979344057 22.336954760594693 93.15621948242188 21.594120025634766 C 93.54801609471022 20.588555829122065 91.69498062446858 17.679439905718315 91.3161849975586 16.8271484375 C 89.97210376665613 13.802961027958592 88.95016479492188 10.567346543513548 88.95016479492188 7.251748085021973" style="fill: none; stroke-width: 3px; stroke: rgb(251, 255, 0);"/>
  <path d="M 68.09023331973872 16.92758231877604 C 69.59403751786972 13.70273067685132 72.68217019861902 10.638823684498352 75.86499786376953 9.013134956359863 C 76.816900437789 8.526932922296455 80.73272869109988 8.707853317260742 79.57131958007812 8.707853317260742" style="fill: none; stroke-width: 3px; stroke: rgb(221, 255, 0);"/>
  <path d="M 53.91386291134891 12.15830263277492 C 47.77020170934965 -2.841294589128605 56.98212760159547 19.465446967600048 52.80050277709961 9.788354873657227 C 48.059890901259344 -1.1823418362457385 55.87169948341229 16.21221494186111 51.88243103027344 7.663750171661377 C 51.66257048315835 7.192618643801581 51.54208148600091 6.681740179942083 51.32571792602539 6.2089924812316895 C 51.12637490944853 5.7734341443686725 50.24147795034958 1.3639336824417114 49.21194076538086 1.3639336824417114" style="fill: none; stroke-width: 3px; stroke: rgb(251, 255, 0);"/>
  <path d="M 37.105066022954546 14.56569874448429 C 34.562077341951806 14.565698623657227 30.055928756934712 14.965644252016155 28.081693649291992 12.882311820983887 C 26.872760310482786 11.606572157583503 28.17714359620703 9.700258060134258 27.585779190063477 8.327762603759766 C 26.715907950161338 6.308881670119822 23.64801479063626 5.821890527561456 22.246767044067383 4.415531635284424 C 21.775266915565744 3.9423116782484757 22.08159711918821 2.5928847789764404 21.413578033447266 2.5928847789764404" style="fill: none; stroke-width: 3px; stroke: rgb(251, 255, 0);"/>
  <path d="M 24.576590715799725 21.24029855032994 C 19.10038393563424 21.240299224853516 14.007706919277878 18.52044817104141 11.894275665283203 13.138396263122559 C 11.25263205036813 11.50439031410941 10.821636221650209 9.77616001738024 10.224884986877441 8.119701385498047 C 10.033166079331533 7.587529148903732 9.867794376416448 7.047644939465911 9.713890075683594 6.502460479736328 C 9.672020226370847 6.354142394615683 9.402198791503906 5.580312538097297 9.402198791503906 5.707414150238037" style="fill: none; stroke-width: 3px; stroke: rgb(251, 255, 0);"/>
  <path d="M 11.426157585349694 36.79427633239523 C 11.42615795135498 34.3472743374243 12.08582149438547 30.476140521667105 9.55813217163086 28.906564712524414 C 8.854736953037133 28.46978946905098 4.475437641143799 28.072423038048093 4.475437641143799 26.91362190246582" style="fill: none; stroke-width: 3px; stroke: rgb(251, 255, 0);"/>
</svg>