<?xml version="1.0" encoding="utf-8"?>
<svg viewBox="0 0 100 125" xmlns="http://www.w3.org/2000/svg" xmlns:bx="https://boxy-svg.com">
  <circle style="fill: rgb(255, 230, 0); stroke-width: 2.5203px; stroke: rgb(0, 0, 0);" cx="38.925" cy="35.04" r="28.816" transform="matrix(0.989847, 0, 0, 0.993598, 11.201904, 22.221701)"/>
  <circle style="stroke: rgb(0, 0, 0); fill: rgb(255, 255, 255);" cx="42.68" cy="53.343" r="19.944" transform="matrix(0.902221, 0, 0, 0.864178, 11.470058, 17.216022)"/>
  <path d="M 32.93 67.831 C 33.423 65.238 34.855 63.076 35.706 60.591 C 35.954 59.867 36.206 59.146 36.453 58.42 C 36.652 57.835 36.835 57.231 37.02 56.646 C 37.189 56.11 37.344 55.567 37.511 55.032 C 37.946 53.636 38.271 52.315 38.617 50.958 C 38.67 50.752 38.704 49.843 38.938 49.761 C 38.962 49.752 39.313 51.798 39.322 51.837 C 39.655 53.449 40.263 55.009 40.648 56.608 C 42.047 62.419 42.779 68.571 44.769 74.2 C 45.146 75.264 45.475 76.515 45.591 77.644 C 45.627 77.989 45.711 79.072 45.991 79.331 C 46.225 79.546 46.141 78.718 46.2 78.409 C 46.333 77.707 46.439 76.982 46.519 76.267 C 46.734 74.354 46.944 72.472 47.254 70.57 C 47.859 66.861 48.613 63.139 49.075 59.411 C 49.396 56.82 49.433 54.106 49.993 51.545 C 50.228 50.471 50.388 49.086 50.894 48.095 C 51 47.888 51.027 46.259 51.148 46.252 C 51.357 46.24 51.198 46.66 51.254 46.858 C 51.366 47.255 51.527 47.613 51.701 47.985 C 52.229 49.11 52.704 50.266 53.194 51.409 C 54.337 54.072 55.722 56.606 56.626 59.36 C 57.5 62.019 57.583 64.898 58.275 67.609 C 58.758 69.502 58.867 71.455 59.659 73.237 C 59.914 73.811 60.115 74.415 60.317 75.01 C 60.388 75.218 60.449 75.429 60.549 75.626 C 60.596 75.717 60.694 76 60.694 75.898 C 60.694 74.323 61.919 72.582 62.493 71.172 C 63.906 67.698 65.222 64.266 65.825 60.693 C 65.958 59.91 66.683 58.931 66.683 58.208" style="stroke: rgb(0, 0, 0); fill: none; stroke-width: 2px;"/>
  <path d="M 257.739 175.203 m -9.368 0 a 9.368 9.376 0 1 0 18.736 0 a 9.368 9.376 0 1 0 -18.736 0 Z M 257.739 175.203 m -5.62 0 a 5.62 5.625 0 0 1 11.24 0 a 5.62 5.625 0 0 1 -11.24 0 Z" style="fill: rgb(255, 0, 0);" transform="matrix(-0.695844, 0.718193, -0.732556, -0.681019, 344.77587, -24.2694)" bx:shape="ring 257.739 175.203 5.62 5.625 9.368 9.376 1@b9517a15"/>
  <path d="M 257.739 175.203 m -9.368 0 a 9.368 9.376 0 1 0 18.736 0 a 9.368 9.376 0 1 0 -18.736 0 Z M 257.739 175.203 m -5.62 0 a 5.62 5.625 0 0 1 11.24 0 a 5.62 5.625 0 0 1 -11.24 0 Z" style="fill: rgb(255, 0, 0);" transform="matrix(-0.695844, 0.718193, -0.732556, -0.681019, 367.066, -25.281781)" bx:shape="ring 257.739 175.203 5.62 5.625 9.368 9.376 1@b9517a15"/>
  <path d="M 59.358 22.931 C 61.664 22.132 64.156 21.537 66.609 21.405 C 68.416 21.308 70.23 21.405 72.04 21.405 C 73.567 21.405 75.095 21.405 76.622 21.405 C 77.732 21.405 78.895 21.324 79.998 21.531 C 80.678 21.659 82.362 21.943 82.911 22.49 C 83.472 23.049 82.708 24.437 82.449 24.868 C 81.205 26.941 79.907 28.884 78.387 30.774 C 78.153 31.066 75.157 33.481 75.593 34.118 C 76.296 35.145 77.964 35.689 78.958 36.379 C 81.746 38.316 84.101 39.865 87.564 40.419 C 91.298 41.017 95.625 42.175 94.512 46.879 C 93.463 51.319 89.915 56.13 86.175 58.593 C 84.53 59.676 82.472 60.163 81.053 61.582 C 80.655 61.98 79.851 62.204 79.851 62.766 C 79.851 63.019 79.169 64.11 79.055 64.377 C 78.348 66.025 77.524 67.668 76.96 69.36 C 74.73 76.051 80.094 82.525 83.181 87.992 C 84.054 89.538 87.251 94.305 84.992 96.061 C 81.998 98.39 76.029 99.147 72.375 98.463 C 70.225 98.06 67.68 96.302 65.853 95.132 C 63.791 93.812 61.172 92.004 61.172 89.283 C 61.172 88.902 60.409 89.313 60.027 89.313 C 59.161 89.313 58.29 89.248 57.427 89.187 C 54.712 88.998 51.684 88.411 48.953 88.734 C 47.355 88.923 46.18 91.717 45.745 93.013 C 44.364 97.13 42.82 101.683 37.689 101.683 C 36.996 101.683 35.929 101.879 35.281 101.594 C 30.014 99.277 33.357 92.077 29.868 88.588 C 26.403 85.123 18.926 84.436 14.42 84.16 C 12.34 84.032 8.927 84.948 7.37 83.119 C 5.484 80.904 7.576 77.131 9.01 75.41 C 12.521 71.197 16.409 66.343 17.413 60.79 C 17.547 60.052 17.75 59.181 17.616 58.423 C 17.537 57.973 16.887 58.364 16.693 58.197 C 16.335 57.891 15.977 57.565 15.644 57.232 C 13.618 55.206 11.442 53.309 9.439 51.306 C 7.626 49.492 8.469 45.203 9.326 43.118 C 10.199 40.997 14.198 43.511 15.551 41.378 C 16.53 39.833 16.429 37.555 16.429 35.814 C 16.429 32.717 16.275 29.732 15.98 26.659 C 15.823 25.029 15.624 23.392 15.461 21.765 C 15.461 21.765 15.286 20.403 15.372 20.395 C 15.503 20.384 16.241 21.108 16.567 21.162 C 17.988 21.399 19.306 21.178 20.722 21.663 C 22.288 22.199 23.785 23.634 25.398 23.903 C 29.08 24.517 34.302 22.317 37.658 20.838 C 40.032 19.791 41.242 16.338 42.379 14.228 C 44.62 10.067 47.828 8.621 52.468 9.085 C 53.174 9.156 53.774 9.694 54.31 10.112 C 55.509 11.046 57.018 12.842 57.211 14.447 C 57.44 16.356 56.1 18.155 56.498 19.996 C 56.773 21.273 58.983 22.373 60.184 22.373" style="fill: none; stroke-width: 7px; stroke: rgb(76, 255, 27); stroke-opacity: 0.56;"/>
</svg>